<svg width="78" height="78" viewBox="0 0 78 78" fill="none" xmlns="http://www.w3.org/2000/svg">
<path d="M34.4751 36.89L57.2562 14.1088C57.9002 13.4649 58.6516 13.1429 59.5102 13.1429C60.3689 13.1429 61.1202 13.4649 61.7642 14.1088C62.4082 14.7528 62.7302 15.5042 62.7302 16.3628C62.7302 17.2215 62.4082 17.9728 61.7642 18.6168L39.0635 41.398L34.4751 36.89ZM42.4444 44.8594L62.8912 24.3322C63.5351 23.6882 64.2999 23.3662 65.1854 23.3662C66.0709 23.3662 66.8356 23.6882 67.4796 24.3322C68.1236 24.9762 68.4456 25.7409 68.4456 26.6264C68.4456 27.5119 68.1236 28.2766 67.4796 28.9206L47.0329 49.3673L42.4444 44.8594ZM16.8458 60.1542C11.9622 55.2706 9.52041 49.3942 9.52041 42.5249C9.52041 35.6557 11.9622 29.7793 16.8458 24.8957L26.5057 15.2358L31.2551 19.9853C31.6308 20.3609 31.9528 20.75 32.2211 21.1525C32.4894 21.555 32.7577 21.9709 33.0261 22.4002L44.9399 10.4059C45.5839 9.7619 46.3486 9.43991 47.2341 9.43991C48.1196 9.43991 48.8844 9.7619 49.5283 10.4059C50.1723 11.0499 50.4943 11.8146 50.4943 12.7001C50.4943 13.5856 50.1723 14.3503 49.5283 14.9943L35.602 28.9206L28.7596 35.6825L30.2891 37.212C32.7577 39.6806 33.9384 42.6323 33.8311 46.0669C33.7237 49.5015 32.4089 52.48 29.8866 55.0023L25.2982 50.4943C26.5325 49.26 27.2167 47.7976 27.3509 46.1071C27.4851 44.4167 26.935 42.9543 25.7007 41.72L21.9172 38.017C21.2732 37.373 20.9512 36.6083 20.9512 35.7228C20.9512 34.8373 21.2732 34.0726 21.9172 33.4286L26.5057 28.9206C27.1497 28.2766 27.4717 27.5119 27.4717 26.6264C27.4717 25.7409 27.1497 24.9762 26.5057 24.3322L21.3537 29.4841C17.7045 33.1334 15.8798 37.4938 15.8798 42.5652C15.8798 47.6366 17.7045 51.997 21.3537 55.6463C25.003 59.2955 29.3768 61.1202 34.4751 61.1202C39.5733 61.1202 43.9471 59.2955 47.5964 55.6463L66.8356 36.3265C67.4796 35.6825 68.2443 35.3605 69.1298 35.3605C70.0153 35.3605 70.78 35.6825 71.424 36.3265C72.068 36.9705 72.39 37.7353 72.39 38.6208C72.39 39.5062 72.068 40.271 71.424 40.915L52.1043 60.1542C47.2207 65.0378 41.3443 67.4796 34.4751 67.4796C27.6058 67.4796 21.7294 65.0378 16.8458 60.1542ZM54.5998 74V67.4796C58.1417 67.4796 61.1738 66.2184 63.6961 63.6961C66.2184 61.1738 67.4796 58.1417 67.4796 54.5998H74C74 59.9664 72.1083 64.5414 68.3248 68.3248C64.5414 72.1083 59.9664 74 54.5998 74ZM3 22.4002C3 17.0336 4.89172 12.4586 8.67517 8.67517C12.4586 4.89172 17.0336 3 22.4002 3V9.52041C18.8583 9.52041 15.8262 10.7816 13.3039 13.3039C10.7816 15.8262 9.52041 18.8583 9.52041 22.4002H3Z" fill="black"/>
</svg>
