<svg width="91" height="35" viewBox="0 0 91 35" fill="none" xmlns="http://www.w3.org/2000/svg">
<path d="M0 1.88613C0 0.868975 0.837965 0.0444336 1.87168 0.0444336C2.13236 0.0444336 2.39304 0.0444336 2.63347 0.0444336C3.24643 0.0444336 3.74336 0.533402 3.74336 1.13655C3.74336 1.89815 3.74336 2.98663 3.74336 4.16793C3.74336 6.02449 4.49294 7.80499 5.82703 9.11787C7.16128 10.4306 8.97076 11.1682 10.8576 11.1682H10.858C12.7448 11.1682 14.5543 10.4306 15.8886 9.11787C17.2227 7.80499 17.9722 6.02449 17.9722 4.16793V1.13655C17.9722 0.533402 18.4692 0.0444336 19.0821 0.0444336C19.3225 0.0444336 19.5834 0.0444336 19.8441 0.0444336C20.8778 0.0444336 21.7157 0.868975 21.7157 1.88613C21.7157 6.80428 21.7157 20.2052 21.7157 25.1234C21.7157 26.1405 20.8778 26.9651 19.8441 26.9651C19.3476 26.9651 18.8714 26.771 18.5204 26.4256C18.1694 26.0803 17.9722 25.6117 17.9722 25.1234C17.9722 24.1027 17.9722 22.7622 17.9722 21.3755C17.9722 17.5092 14.7872 14.3752 10.858 14.3752C10.8579 14.3752 10.8577 14.3752 10.8576 14.3752C6.92856 14.3752 3.74336 17.5092 3.74336 21.3755C3.74336 22.7622 3.74336 24.1027 3.74336 25.1234C3.74336 25.6117 3.54617 26.0803 3.19517 26.4256C2.84417 26.771 2.36813 26.9651 1.87168 26.9651C0.837965 26.9651 0 26.1405 0 25.1234C0 20.2052 0 6.80428 0 1.88613Z" fill="#212B00"/>
<path d="M29.5751 21.7423C29.5751 22.6953 29.929 23.4466 30.6367 23.9964C31.3444 24.5461 32.1825 24.821 33.151 24.821C34.3304 24.821 35.4728 24.5523 36.5779 24.0146C38.4402 23.1229 39.3714 21.6629 39.3714 19.6348V18.8124C39.3714 18.4278 39.1895 18.0652 38.8793 17.8313C38.5691 17.5975 38.1661 17.519 37.7887 17.619C37.7885 17.619 37.7885 17.619 37.7884 17.619C37.1428 17.7901 36.5096 17.9122 35.8887 17.9855L33.8587 18.242C32.642 18.401 31.7293 18.6513 31.121 18.9934C30.0905 19.5676 29.5751 20.484 29.5751 21.7423ZM37.6953 15.0716C38.465 14.9739 38.9804 14.6564 39.2411 14.1187C39.3901 13.8255 39.4646 13.4041 39.4646 12.8542C39.4646 11.7303 39.0548 10.9178 38.2353 10.417C37.4284 9.9038 36.2674 9.64729 34.7526 9.64729C33.002 9.64729 31.7603 10.1116 31.0278 11.04C30.7031 11.4466 30.4681 12.0105 30.3227 12.7317C30.2499 13.0775 29.9404 13.3253 29.5815 13.3253C29.5813 13.3307 29.5812 13.3307 29.5812 13.3307C28.8759 13.3308 28.2177 12.9839 27.827 12.4062C27.4363 11.8287 27.3651 11.0971 27.6373 10.4571C28.0462 9.52268 28.6574 8.79919 29.482 8.29124C31.0216 7.33829 32.8033 6.86182 34.8272 6.86182C37.1738 6.86182 39.0797 7.3016 40.5448 8.18118C41.9975 9.06091 42.7238 10.4291 42.7238 12.2862V23.5932C42.7238 23.9352 42.7921 24.2102 42.9287 24.4179C43.0776 24.6255 43.3819 24.7294 43.8412 24.7294C43.9902 24.7294 44.1578 24.7232 44.3441 24.7111H44.3442C44.4947 24.6913 44.6464 24.7364 44.7605 24.8347C44.8746 24.9329 44.94 25.0749 44.94 25.2242C44.94 25.4554 44.94 25.7265 44.94 25.9882C44.9402 26.6663 44.431 27.2402 43.7483 27.3318C43.7481 27.3316 43.7481 27.3316 43.7481 27.3316C43.4749 27.3683 43.1024 27.3866 42.6307 27.3866C41.476 27.3866 40.6378 26.9835 40.1163 26.1772C39.8433 25.7496 39.6507 25.1448 39.539 24.3628C38.8562 25.2426 37.8753 26.0061 36.5964 26.6537C35.3175 27.3011 33.9084 27.6248 32.3688 27.6248C30.5188 27.6248 29.004 27.0751 27.8244 25.9756C26.6573 24.8638 26.0737 23.4771 26.0737 21.8155C26.0737 19.9952 26.6512 18.5841 27.8059 17.5823C28.9605 16.5805 30.4752 15.9636 32.3501 15.7314L37.6953 15.0716Z" fill="#212B00"/>
<path d="M48.218 9.10629C48.218 8.18038 48.9808 7.42969 49.9219 7.42969H49.9222C50.8634 7.42969 51.6261 8.18038 51.6261 9.10629C51.6261 12.7985 51.6261 21.5962 51.6261 25.2884C51.6261 26.2143 50.8634 26.965 49.9222 26.965H49.9219C48.9808 26.965 48.218 26.2143 48.218 25.2884C48.218 21.5962 48.218 12.7985 48.218 9.10629Z" fill="#212B00"/>
<path d="M57.5041 7.33838C57.9974 7.33838 58.4347 7.65007 58.5883 8.11121C59.3938 10.5277 61.8801 17.9869 63.0443 21.4794C63.1327 21.7444 63.3832 21.9243 63.6667 21.9262C63.9502 21.928 64.2032 21.7514 64.2953 21.4876C65.5537 17.8762 68.2982 10.0002 69.0386 7.87558C69.1506 7.55424 69.4578 7.33838 69.803 7.33838C69.8031 7.33838 69.8033 7.33838 69.8035 7.33838C70.5055 7.33838 71.1626 7.67727 71.5618 8.24531C71.9611 8.81335 72.0515 9.5381 71.8037 10.1843C70.2019 14.3628 67.2658 22.0217 65.9899 25.3499C65.6173 26.322 64.6719 26.9653 63.6161 26.9653C63.5984 26.9653 63.5809 26.9653 63.5632 26.9653C62.5006 26.9653 61.5506 26.3136 61.1829 25.3326C59.91 21.9364 56.9672 14.0851 55.4237 9.96714C55.199 9.36795 55.2864 8.69854 55.6575 8.17462C56.0288 7.65055 56.6368 7.33838 57.2859 7.33838C57.3611 7.33838 57.4341 7.33838 57.5041 7.33838Z" fill="#212B00"/>
<path d="M88.0341 7.89756C88.1466 7.56373 88.4639 7.33838 88.8213 7.33838C88.8214 7.33838 88.8214 7.33838 88.8216 7.33838C89.5316 7.33838 90.1972 7.67885 90.6049 8.25085C91.0126 8.82284 91.1116 9.55439 90.8699 10.2113C90.3336 11.6779 89.6374 13.5912 88.7813 15.9515C87.5645 19.3233 86.5464 22.0723 85.7269 24.198C83.79 29.2071 82.4242 32.2614 81.6295 33.3609C80.8349 34.4605 76.6844 34.9553 76.4334 34.9553C76.1989 34.9553 10.0701 34.5068 1.02022 34.368C0.423001 34.2269 0.00192857 33.7014 0.00192857 33.0972C-5.68773e-09 33.097 0 33.0968 0 33.0965C0 32.5611 0.248786 32.055 0.675483 31.7226C1.10218 31.3902 1.65986 31.268 2.18957 31.3908C14.7001 31.598 76.531 32.0414 76.7687 32.0414C77.0321 32.0414 78.5317 31.9925 78.8173 31.7849C79.1153 31.5895 79.3636 31.3451 79.5622 31.0519C79.6244 30.9542 79.8478 30.4532 80.2327 29.5491C80.6176 28.645 80.8969 27.9731 81.0708 27.5333C81.0708 27.5333 76.7272 15.6395 74.7069 10.1071C74.4753 9.47327 74.5719 8.76812 74.9658 8.21716C75.3595 7.6662 76.0013 7.33838 76.6857 7.33838C76.7616 7.33838 76.8339 7.33838 76.9019 7.33838C77.2558 7.33838 77.5698 7.56183 77.6804 7.89266C78.397 10.0351 81.0054 17.8335 82.2156 21.4513C82.3046 21.7174 82.557 21.8972 82.8416 21.8975C83.1262 21.8978 83.379 21.7185 83.4685 21.4525C84.6859 17.8381 87.3101 10.0473 88.0341 7.89756Z" fill="#212B00"/>
</svg>
